<mxfile host="app.diagrams.net" modified="2024-02-28T10:03:13.795Z" agent="Mozilla/5.0 (Macintosh; Intel Mac OS X 10_15_7) AppleWebKit/605.1.15 (KHTML, like Gecko) Version/17.3 Safari/605.1.15" version="23.1.7" etag="BnauOKUQ9PHgDQ_APnV6" type="github">
  <diagram name="Page-1" id="ZShiGL7Zgp_9ACBQD5fn">
    <mxGraphModel>
      <root>
        <mxCell id="0" />
        <mxCell id="1" parent="0" />
      </root>
    </mxGraphModel>
  </diagram>
</mxfile>
